<svg width="99" height="99" viewBox="0 0 99 99" fill="none" xmlns="http://www.w3.org/2000/svg">
<path d="M99 49.5003C99 76.8384 76.8378 99.0006 49.5 99.0006C22.1618 99.0006 0 76.8384 0 49.5003C0 22.1622 22.1618 3.05176e-05 49.5 3.05176e-05C76.8378 3.05176e-05 99 22.1622 99 49.5003Z" fill="white"/>
<mask id="mask0_1_2155" style="mask-type:luminance" maskUnits="userSpaceOnUse" x="0" y="0" width="99" height="100">
<path d="M99 49.5003C99 76.8384 76.8378 99.0006 49.5 99.0006C22.1618 99.0006 0 76.8384 0 49.5003C0 22.1622 22.1618 3.05176e-05 49.5 3.05176e-05C76.8378 3.05176e-05 99 22.1622 99 49.5003Z" fill="white"/>
</mask>
<g mask="url(#mask0_1_2155)">
<path d="M64.0191 81.3972L63.9628 88.1483L63.8715 98.5477L63.7109 117.001H4.08643L4.14952 115.25L14.7871 95.8444L24.3887 78.3229L31.9798 64.4709L34.9843 64.4424H35.166L35.4253 64.4366L49.6343 64.303L49.6414 64.3103L53.1009 68.4274H53.108L64.0191 81.3972Z" fill="white"/>
<path d="M38.9403 91.2225L31.9796 64.4709C30.1586 64.3168 28.3801 64.2752 26.6571 64.3168C14.1848 64.6389 10.4434 67.1407 6.83757 70.6006C3.13619 74.1517 -5.01778 83.8062 -9.96973 117.001H1.41807H12.2588H38.7444C39.1015 102.771 38.9403 91.2225 38.9403 91.2225Z" fill="#EF325F"/>
<path d="M12.5908 117.204L15.042 107.75L17.2829 99.101C17.3944 98.6699 17.1354 98.2298 16.7044 98.118C16.2734 98.0062 15.8335 98.2655 15.722 98.6965L13.4811 107.345L11.0299 116.799C10.9181 117.23 11.1769 117.67 11.6078 117.782C12.0388 117.894 12.479 117.635 12.5908 117.204Z" fill="#A13352"/>
<path d="M55.9447 67.5803C55.1137 67.0881 54.2987 66.6908 53.5773 66.3053C51.3152 65.115 49.7675 64.3658 49.6414 64.3103L49.6343 64.303L51.6935 74.7513L54.8798 90.9569L55.2859 117.001H58.4444H69.0468H78.6904C78.9839 81.958 67.2146 74.2518 55.9447 67.5803Z" fill="#EF325F"/>
<path d="M51.5439 75.4035L54.8823 90.9553L64.3425 98.95C65.8293 100.207 68.0843 98.98 67.8374 97.0494L66.7976 88.9092C66.4551 86.2264 65.5058 83.6574 64.0219 81.3966L54.0251 64.3016L51.5439 75.4035Z" fill="#F2568D"/>
<path d="M75.0134 14.4912L75.1967 14.4963C75.7261 14.6482 78.3221 15.5574 77.651 18.6383C76.9025 22.0697 65.7671 29.0428 58.1455 24.7074L60.9336 17.2092L75.0134 14.4912Z" fill="#A13352"/>
<path d="M61.0255 43.0299C61.6564 45.8223 64.4321 47.5756 67.2245 46.9447C70.0177 46.3138 71.7703 43.5381 71.1401 40.7457C70.5092 37.9525 67.7335 36.1999 64.9403 36.8308C62.1479 37.461 60.3946 40.2367 61.0255 43.0299Z" fill="#EF7856"/>
<path d="M56.1231 54.9126L51.5435 75.4039L38.1087 70.3835C35.6122 69.451 34.2723 66.7367 35.0503 64.1881L42.7183 39.0597L56.1231 54.9126Z" fill="#F8A67E"/>
<path d="M54.4745 62.312C54.4745 62.312 45.5967 61.3371 46.3606 50.8998L55.704 56.8834L54.4745 62.312Z" fill="#EF7856"/>
<path d="M67.2947 25.6057C67.2947 25.6057 70.0682 43.1717 67.3123 49.9023C64.5571 56.6337 58.7049 60.5792 49.856 58.1797C49.856 58.1797 39.4957 56.9171 37.9972 41.2964C35.742 17.7789 57.3612 12.4555 67.2947 25.6057Z" fill="#F8A67E"/>
<path d="M43.126 38.0726C43.126 38.0726 44.9351 35.2093 43.108 27.4439C41.281 19.6792 62.3098 19.8852 67.2944 25.6059C67.2944 25.6059 63.9426 16.9386 51.3812 16.4815C38.8199 16.0251 28.6569 24.0351 32.9962 38.0726L36.0786 42.9821L43.126 38.0726Z" fill="#0E0E0E"/>
<path d="M43.9233 33.8697C43.9233 33.8697 42.9577 44.1055 51.6858 45.9173C57.2556 47.0732 62.893 42.9817 68.1479 46.6431C68.1479 46.6431 66.0827 62.1133 50.219 58.3832C48.0953 57.8838 46.1377 56.8622 44.4897 55.4316C41.2687 52.6362 36.6476 46.9396 39.392 38.7288L43.9233 33.8697Z" fill="#0E0E0E"/>
<path d="M29.9446 43.2741C30.7099 46.6631 34.0778 48.7903 37.4675 48.025C40.8565 47.2597 42.9837 43.8919 42.2184 40.5021C41.4527 37.113 38.0847 34.9851 34.6954 35.7511C31.306 36.5164 29.1789 39.8843 29.9446 43.2741Z" fill="#F8A67E"/>
<path d="M33.4924 40.366L33.4986 40.3645C33.5509 40.355 33.8557 40.301 34.2856 40.301C34.9277 40.3003 35.8331 40.4229 36.6187 40.9385C37.4014 41.4577 38.1197 42.3515 38.4172 44.099C38.4648 44.3867 38.7367 44.581 39.024 44.5328C39.3112 44.4853 39.5054 44.2136 39.4575 43.9259C39.1349 41.9513 38.2315 40.726 37.1955 40.0556C36.1623 39.3831 35.0515 39.248 34.2856 39.2465C33.6954 39.2465 33.301 39.329 33.2747 39.3342C32.9897 39.394 32.8075 39.6737 32.8673 39.9585C32.9275 40.244 33.2071 40.4259 33.4924 40.366Z" fill="#EF7856"/>
<path d="M64.9169 38.8127C65.0374 39.4561 65.6567 39.8811 66.3008 39.7606C66.9448 39.6401 67.3691 39.0208 67.2486 38.3768C67.1281 37.7327 66.5089 37.3084 65.8641 37.4289C65.2207 37.5487 64.7964 38.1687 64.9169 38.8127Z" fill="#0E0E0E"/>
<path d="M54.9027 38.2904C55.0231 38.9344 55.6427 39.3587 56.2864 39.2382C56.9312 39.1177 57.3555 38.4977 57.235 37.8537C57.1145 37.2096 56.4945 36.7853 55.8504 36.9058C55.2065 37.0263 54.7824 37.6463 54.9027 38.2904Z" fill="#0E0E0E"/>
<path d="M61.821 40.0531L63.464 42.774L62.0276 43.5269C61.7699 43.662 61.6705 43.9804 61.8056 44.2389C61.9407 44.4967 62.2598 44.596 62.5176 44.4609L64.4498 43.448C64.5784 43.3809 64.674 43.2626 64.7127 43.1231C64.7514 42.9836 64.731 42.8324 64.6565 42.7083L62.7243 39.5084C62.5739 39.2586 62.2496 39.1783 61.9999 39.3295C61.7509 39.4799 61.6705 39.8041 61.821 40.0531Z" fill="#EF7856"/>
<path d="M58.6043 30.8628C58.6715 31.8289 57.8945 32.6402 56.9262 32.6117C55.4648 32.5693 53.3303 32.6438 51.3369 33.2251C50.5953 33.4412 49.8145 33.0586 49.5698 32.3254C49.3353 31.6237 49.715 30.9358 50.3593 30.5721C51.679 29.8258 53.7596 28.7399 57.1803 29.3504C57.9485 29.4877 58.5495 30.085 58.6043 30.8628Z" fill="#0E0E0E"/>
<path d="M63.2402 31.2299C63.2738 32.1741 63.8493 33.0051 64.4839 33.0211C65.4412 33.046 66.8498 33.2176 68.2074 33.877C68.712 34.1231 69.1946 33.7828 69.2961 33.0759C69.394 32.3982 69.0888 31.7067 68.636 31.3204C67.7086 30.5295 66.2532 29.3692 64.0537 29.8124C63.5601 29.9118 63.2132 30.4697 63.2402 31.2299Z" fill="#0E0E0E"/>
<path d="M54.1437 43.8545C54.12 43.8545 54.0967 43.8538 54.073 43.8538C50.6808 43.8143 47.9635 40.9729 48.0034 37.5072C48.0242 35.7021 48.7884 34.0838 49.9944 32.9527C50.2492 33.1666 50.5764 33.2857 50.9186 33.2857C51.0567 33.2857 51.1974 33.2667 51.3366 33.2258C53.0381 32.73 54.8423 32.6029 56.2431 32.6029C56.4833 32.6029 56.7119 32.6066 56.9258 32.6124C56.9419 32.6131 56.958 32.6131 56.974 32.6131C57.2311 32.6131 57.4743 32.554 57.6897 32.4488C59.2816 33.5997 60.3113 35.5042 60.2872 37.6482C60.2477 41.0905 57.5035 43.8545 54.1437 43.8545ZM56.07 36.8858C55.9977 36.8858 55.924 36.8923 55.8502 36.9062C55.2063 37.0267 54.7821 37.6467 54.9025 38.2908C55.0089 38.8611 55.5069 39.2591 56.0671 39.2591C56.1394 39.2591 56.2124 39.2525 56.2862 39.2386C56.931 39.1181 57.3552 38.4982 57.2347 37.8541C57.1281 37.2838 56.6294 36.8858 56.07 36.8858Z" fill="#FAB99C"/>
<path d="M56.0673 39.2587C55.5072 39.2587 55.0091 38.8607 54.9027 38.2904C54.7824 37.6463 55.2065 37.0263 55.8504 36.9058C55.9242 36.8919 55.998 36.8854 56.0703 36.8854C56.6296 36.8854 57.1284 37.2834 57.235 37.8537C57.3555 38.4978 56.9312 39.1177 56.2864 39.2382C56.2127 39.2521 56.1396 39.2587 56.0673 39.2587Z" fill="#444648"/>
<path d="M50.9188 33.2852C50.5766 33.2852 50.2493 33.1661 49.9946 32.9522C51.0891 31.9262 52.5482 31.3004 54.1465 31.3004C54.1705 31.3004 54.1935 31.3004 54.2175 31.3011C55.512 31.3157 56.7077 31.7385 57.6899 32.4483C57.4744 32.5535 57.2313 32.6126 56.9742 32.6126C56.9582 32.6126 56.9421 32.6126 56.926 32.6119C56.7121 32.606 56.4835 32.6024 56.2433 32.6024C54.8425 32.6024 53.0383 32.7294 51.3367 33.2253C51.1976 33.2662 51.0569 33.2852 50.9188 33.2852Z" fill="#444648"/>
<path d="M71.0568 43.3516C71.2992 42.5316 71.3416 41.6392 71.14 40.7454C70.788 39.1878 69.7686 37.9529 68.452 37.276C68.3994 36.1186 68.3249 34.9779 68.2388 33.8913C68.3388 33.9351 68.4374 33.9563 68.5316 33.9563C68.9048 33.9563 69.2166 33.6277 69.2962 33.0756C69.3685 32.5762 69.221 32.0679 68.9566 31.6809C69.0566 31.6743 69.1567 31.6714 69.2582 31.6714C69.2757 31.6714 69.294 31.6714 69.3122 31.6714C72.2186 31.705 74.5444 34.431 74.5057 37.7594C74.4765 40.3299 73.046 42.5082 71.0568 43.3516Z" fill="white"/>
<path d="M69.2269 43.7266C69.2094 43.7266 69.1912 43.7258 69.1729 43.7258C68.9283 43.7229 68.6866 43.701 68.4507 43.6616C68.5697 41.6205 68.5485 39.4174 68.4521 37.2763C69.7688 37.9533 70.7882 39.1881 71.1402 40.7457C71.3417 41.6395 71.2994 42.5319 71.0569 43.3519C70.4866 43.5944 69.8695 43.7266 69.2269 43.7266Z" fill="#F5957C"/>
<path d="M68.4507 43.6611C65.8912 43.2281 63.9444 40.6861 63.9795 37.6381C63.9999 35.8402 64.7068 34.2337 65.8102 33.1412C66.5543 33.2595 67.3904 33.4793 68.2076 33.8766C68.2178 33.8817 68.2288 33.8868 68.239 33.8912C68.3251 34.9778 68.3996 36.1185 68.4522 37.2759C68.5486 39.417 68.5698 41.6201 68.4507 43.6611ZM66.084 37.4081C66.0117 37.4081 65.9387 37.4146 65.8642 37.4285C65.2209 37.5483 64.7966 38.1682 64.9171 38.8123C65.0237 39.3826 65.5217 39.7806 66.0818 39.7806C66.1541 39.7806 66.2272 39.774 66.3009 39.7602C66.945 39.6397 67.3693 39.0204 67.2488 38.3764C67.1422 37.806 66.6441 37.4081 66.084 37.4081Z" fill="#FAB99C"/>
<path d="M66.0817 39.781C65.5216 39.781 65.0236 39.383 64.9169 38.8127C64.7964 38.1686 65.2207 37.5487 65.8641 37.4289C65.9385 37.415 66.0116 37.4084 66.0839 37.4084C66.644 37.4084 67.142 37.8064 67.2486 38.3767C67.3691 39.0208 66.9448 39.6401 66.3008 39.7606C66.227 39.7744 66.154 39.781 66.0817 39.781Z" fill="#444648"/>
<path d="M68.5322 33.9566C68.438 33.9566 68.3394 33.9354 68.2393 33.8916C68.2291 33.8872 68.2182 33.8821 68.2079 33.877C67.3908 33.4798 66.5547 33.26 65.8105 33.1417C66.6657 32.296 67.7596 31.7586 68.9572 31.6812C69.2215 32.0682 69.369 32.5764 69.2967 33.0759C69.2171 33.628 68.9053 33.9566 68.5322 33.9566Z" fill="#444648"/>
<path d="M60.2875 37.6476L59.7858 37.6417C59.7486 40.8168 57.2205 43.353 54.1441 43.3515H54.0779H54.0791C50.9952 43.3172 48.5058 40.7467 48.5053 37.5819L48.5055 37.5125C48.5426 34.3367 51.0702 31.8005 54.1467 31.802L54.2111 31.8027H54.212C57.2957 31.8356 59.7851 34.4068 59.7858 37.5731V37.6417L60.2875 37.6476L60.7892 37.6527L60.7899 37.5731C60.7907 33.8737 57.8748 30.8417 54.2234 30.7986H54.2239H54.1467C50.5034 30.8001 47.5443 33.7912 47.502 37.5008L47.5015 37.5819C47.5009 41.2798 50.4165 44.311 54.0674 44.3549H54.0685L54.1441 44.3556C57.7872 44.3541 60.7468 41.3631 60.7892 37.6534L60.2875 37.6476Z" fill="white"/>
<path d="M74.5059 37.7598L74.0042 37.7539C73.9867 39.2904 73.4295 40.6669 72.5576 41.6512C71.6835 42.6356 70.5108 43.2242 69.227 43.2242H69.1781H69.1788C67.895 43.2089 66.7332 42.6086 65.8744 41.6169C65.0179 40.626 64.4804 39.248 64.4811 37.7203V37.6451C64.4987 36.1087 65.0558 34.7315 65.9278 33.7471C66.8019 32.7627 67.9746 32.1741 69.2584 32.1734L69.3051 32.1741H69.3066C70.5904 32.1895 71.7522 32.7897 72.6109 33.7814C73.4675 34.7724 74.005 36.1503 74.0042 37.6787V37.7547L74.5059 37.7598L75.0076 37.7656L75.0083 37.6787C75.0076 35.9145 74.3898 34.3064 73.3704 33.1249C72.3524 31.9448 70.9168 31.1883 69.3183 31.1701H69.319H69.2584C67.6592 31.1693 66.2118 31.9105 65.1763 33.0818C64.1387 34.2539 63.4982 35.8611 63.4778 37.6327L63.4771 37.7203C63.4778 39.4839 64.0956 41.0919 65.115 42.2734C66.133 43.4535 67.5686 44.21 69.1671 44.2275H69.1686L69.227 44.2283C70.8262 44.229 72.2736 43.4878 73.3091 42.3165C74.3467 41.1444 74.9872 39.5379 75.0076 37.7656L74.5059 37.7598Z" fill="white"/>
<path d="M60.6085 38.0336L60.4807 37.881L60.607 38.035L60.6085 38.0336L60.4807 37.881L60.607 38.035C60.6128 38.0219 61.3621 37.4465 62.2157 37.4567C62.6568 37.4603 63.1315 37.5845 63.6558 38.0219C63.8675 38.2008 64.1837 38.1738 64.3626 37.962C64.5416 37.7503 64.5145 37.4341 64.3028 37.2551C63.6127 36.668 62.8656 36.4504 62.2157 36.4533C60.9035 36.465 60.0089 37.2347 59.9659 37.2624C59.7526 37.4399 59.7241 37.7561 59.9016 37.9693C60.079 38.1818 60.3952 38.211 60.6085 38.0336Z" fill="white"/>
<path d="M47.9308 37.0105L41.7135 37.9218C41.439 37.962 41.2493 38.2168 41.2896 38.4907C41.3298 38.7652 41.5848 38.9551 41.8589 38.9149L48.0763 38.0029C48.3504 37.9627 48.5401 37.7078 48.5001 37.434C48.4599 37.1594 48.2049 36.9703 47.9308 37.0105Z" fill="white"/>
<path d="M63.3193 47.3324L57.833 47.4236C57.833 47.4236 57.8206 49.1185 60.6167 49.0908C63.4128 49.0623 63.3193 47.3324 63.3193 47.3324Z" fill="white"/>
<path d="M36.4343 14.3222C36.6505 15.7039 37.9467 16.6488 39.329 16.4319C40.7116 16.2158 41.6563 14.9196 41.4399 13.5372C41.2231 12.1549 39.9272 11.2099 38.5445 11.4268C37.1622 11.6437 36.2175 12.9392 36.4343 14.3222Z" fill="#BB3D85"/>
<path d="M42.6058 12.031C33.4254 15.7216 28.7484 25.604 32.1143 34.1464L63.165 16.8207C58.5616 11.1357 50.2277 8.96762 42.6058 12.031Z" fill="#1C4673"/>
<path d="M43.2061 27.9571C43.2061 27.9571 51.182 17.4014 62.6736 16.2316L75.0381 14.4863C75.0381 14.4863 65.477 18.0155 61.6958 22.072C57.9132 26.1285 47.8078 29.1299 43.2061 27.9571Z" fill="#F2568D"/>
<path d="M51.544 75.4036L52.5894 80.2744C52.5894 80.2744 43.7803 85.9571 36.8547 76.7363L35.0508 64.1878L51.544 75.4036Z" fill="#F8A67E"/>
<path d="M35.0509 64.1874C35.0509 64.1874 42.3744 80.274 38.9374 91.2224C37.9519 94.3619 28.6037 99.3712 28.6037 99.3712C26.0569 101.774 21.8991 99.6866 22.3044 96.2094L25.6618 67.3976C26.2052 62.7343 30.5936 59.3357 35.1861 60.3091C35.501 60.3763 35.8259 60.4559 36.1605 60.5501L35.0509 64.1874Z" fill="#F2568D"/>
</g>
</svg>
